<svg width="717" height="361" viewBox="0 0 717 361" fill="none" xmlns="http://www.w3.org/2000/svg">
<path d="M31.2667 178.363H0V54.6584C9.41555 54.6584 21.0221 54.2438 30.3193 54.4215C30.3193 55.5466 30.3193 56.4941 30.3193 57.6785C30.3193 60.817 30.3193 64.0147 30.5561 68.5744C40.8599 56.3164 53.414 51.6383 68.0999 51.9344C82.7858 52.2305 95.0438 57.3231 103.986 69.3443C108.427 65.9689 112.276 62.2382 116.836 59.6918C135.134 49.2696 154.32 48.559 173.033 57.6785C187.541 64.7253 194.41 78.1676 195.417 93.6826C196.542 111.27 196.068 129.035 196.187 146.682C196.246 156.157 196.246 165.632 196.128 175.106C196.128 176.291 196.128 177.593 196.128 178.482C186.416 178.719 174.869 178.659 164.683 178.659C164.683 176.646 164.683 175.166 164.683 173.685C164.683 149.584 164.743 125.541 164.683 101.44C164.624 86.7541 155.268 78.1084 140.7 78.819C126.903 79.4704 115.888 90.1887 114.289 104.934C113.638 110.737 113.697 116.6 113.697 122.462C113.638 140.938 113.697 159.473 113.697 178.363H82.4305C82.4305 177.001 82.4305 175.521 82.4305 174.04C82.4305 151.064 82.4305 128.088 82.4305 105.112C82.4305 103.276 82.4305 101.499 82.2528 99.6635C80.7724 88.0569 75.2652 81.3061 65.6128 79.2335C54.776 76.8649 43.2878 81.6615 37.1292 90.9586C33.1025 97.1172 31.3259 103.868 31.3259 111.092C31.3259 131.996 31.3259 152.841 31.3259 173.744C31.3259 175.225 31.3259 176.705 31.3259 178.423L31.2667 178.363Z" fill="white"/>
<path d="M474.21 178.363H444.483C444.128 174.81 443.713 171.316 443.299 167.408C442.529 167.822 441.996 167.941 441.641 168.296C422.573 188.43 386.805 188.726 366.375 163.855C353.407 148.103 349.439 129.746 351.689 109.849C353.88 90.7806 361.993 74.9104 378.219 64.0736C397.701 51.105 418.723 48.3218 440.871 56.7899C441.344 56.9675 441.937 57.086 443.002 57.3228V2.66528H474.151V178.363H474.21ZM443.358 89.241C443.476 86.2801 442.351 84.6812 439.864 83.3192C432.284 79.174 424.053 79.1148 415.822 79.1148C408.064 79.1148 401.314 81.898 395.806 87.346C383.371 99.6632 380.647 114.704 384.377 131.226C386.687 141.471 391.661 150.353 402.024 153.965C421.862 160.894 438.976 151.301 442.351 131.344L443.358 89.3002V89.241Z" fill="white"/>
<path d="M336.295 126.37H242.791C242.199 134.009 245.337 139.871 250.015 144.964C257.003 152.544 265.945 156.215 276.13 156.393C291.231 156.63 305.206 153.136 316.99 141.944C322.734 148.28 328.36 154.498 334.045 160.834C324.096 171.967 311.661 177.948 297.745 180.968C281.045 184.58 264.287 184.64 248.357 177.593C223.723 166.756 212.709 146.681 210.873 120.863C209.807 105.17 212.945 90.3066 222.183 77.2788C235.803 58.0331 254.93 49.9204 278.321 50.8678C309.055 52.1114 329.011 72.6598 333.926 103.453C335.111 110.796 335.407 118.316 336.236 126.429L336.295 126.37ZM303.015 103.63C303.666 89.3591 291.053 77.338 275.538 77.0419C256.825 76.6866 242.376 88.1747 242.554 103.63H303.015Z" fill="white"/>
<path d="M663.943 161.722C647.362 182.626 606.561 189.199 581.69 175.046C585.539 164.801 584.828 154.971 578.078 145.97C571.268 136.91 561.793 133.771 550.838 134.541C543.672 110.381 551.311 76.8044 579.676 59.8091C606.443 43.7612 645.348 48.4986 664.12 70.409C657.429 76.5676 650.678 82.7262 643.513 89.2401C643.276 89.0032 642.21 87.9965 641.144 87.049C625.274 72.8961 600.402 74.3765 588.026 90.1875C573.932 108.13 578.847 138.923 597.619 150.53C609.226 157.695 627.346 156.452 639.19 147.628C641.322 146.029 643.276 144.253 645.822 142.121C648.783 145.319 651.862 148.694 654.942 152.01C657.962 155.267 660.982 158.524 664.002 161.722H663.943Z" fill="white"/>
<path d="M525.552 54.9534V178.244H494.759V54.9534H525.552Z" fill="white"/>
<path d="M712.735 178.362H682.001V54.9534H712.735V178.362Z" fill="white"/>
<path d="M716.168 18.8904C717.293 27.5362 708.944 38.0768 697.278 37.9584C686.619 37.8992 678.032 29.4903 677.973 18.9497C677.914 8.52741 686.5 0.00012207 697.219 0.00012207C708.233 0.00012207 716.168 7.87602 716.168 18.8904Z" fill="white"/>
<path d="M490.969 19.0089C490.969 8.23132 499.141 0.0593394 510.037 0.00012207C520.814 0.00012207 529.164 8.17211 529.164 18.9497C529.164 29.5495 520.696 38.0768 510.037 38.0768C499.319 38.0768 490.969 29.7272 490.91 19.0089H490.969Z" fill="white"/>
<circle cx="554.711" cy="163.53" r="18.8634" fill="#21CE99"/>
<path d="M62.9231 271.214C62.9231 275.694 61.8665 279.92 59.7535 283.892C57.6404 287.865 54.2595 291.119 49.6107 293.655C44.962 296.106 39.0031 297.332 31.7341 297.332H15.7593V333.085H1.30583V244.97H31.7341C38.4959 244.97 44.2012 246.153 48.85 248.52C53.5833 250.802 57.091 253.929 59.3731 257.902C61.7398 261.874 62.9231 266.312 62.9231 271.214ZM31.7341 285.541C37.2281 285.541 41.3275 284.315 44.0322 281.864C46.7369 279.328 48.0893 275.778 48.0893 271.214C48.0893 261.578 42.6376 256.761 31.7341 256.761H15.7593V285.541H31.7341ZM116.518 256.634V282.498H146.947V294.289H116.518V321.294H150.75V333.085H102.065V244.843H150.75V256.634H116.518ZM255.527 271.214C255.527 275.694 254.47 279.92 252.357 283.892C250.244 287.865 246.863 291.119 242.214 293.655C237.565 296.106 231.607 297.332 224.338 297.332H208.363V333.085H193.909V244.97H224.338C231.099 244.97 236.805 246.153 241.453 248.52C246.187 250.802 249.694 253.929 251.977 257.902C254.343 261.874 255.527 266.312 255.527 271.214ZM224.338 285.541C229.832 285.541 233.931 284.315 236.636 281.864C239.34 279.328 240.693 275.778 240.693 271.214C240.693 261.578 235.241 256.761 224.338 256.761H208.363V285.541H224.338ZM351.594 244.97V256.761H328.139V333.085H313.686V256.761H290.104V244.97H351.594ZM406.042 244.97V333.085H391.589V244.97H406.042ZM479.155 244.97C488.538 244.97 496.736 246.787 503.752 250.421C510.852 253.971 516.303 259.127 520.107 265.889C523.995 272.566 525.939 280.385 525.939 289.344C525.939 298.304 523.995 306.08 520.107 312.672C516.303 319.265 510.852 324.337 503.752 327.887C496.736 331.352 488.538 333.085 479.155 333.085H450.375V244.97H479.155ZM479.155 321.294C489.467 321.294 497.37 318.505 502.864 312.926C508.358 307.348 511.105 299.487 511.105 289.344C511.105 279.117 508.358 271.129 502.864 265.382C497.37 259.634 489.467 256.761 479.155 256.761H464.829V321.294H479.155ZM580.074 256.634V282.498H610.502V294.289H580.074V321.294H614.306V333.085H565.62V244.843H614.306V256.634H580.074ZM686.499 333.972C680.582 333.972 675.257 332.958 670.524 330.929C665.79 328.816 662.071 325.858 659.367 322.055C656.662 318.251 655.31 313.814 655.31 308.742H670.777C671.115 312.546 672.595 315.673 675.215 318.124C677.92 320.575 681.681 321.801 686.499 321.801C691.485 321.801 695.374 320.618 698.163 318.251C700.952 315.8 702.347 312.672 702.347 308.869C702.347 305.911 701.459 303.502 699.684 301.642C697.994 299.783 695.838 298.346 693.218 297.332C690.682 296.317 687.133 295.218 682.568 294.035C676.821 292.514 672.13 290.992 668.495 289.471C664.945 287.865 661.902 285.414 659.367 282.117C656.831 278.821 655.563 274.426 655.563 268.932C655.563 263.86 656.831 259.423 659.367 255.619C661.902 251.816 665.452 248.9 670.017 246.871C674.581 244.843 679.864 243.829 685.865 243.829C694.401 243.829 701.375 245.984 706.784 250.295C712.278 254.521 715.321 260.353 715.913 267.791H699.938C699.684 264.579 698.163 261.832 695.374 259.55C692.584 257.268 688.907 256.127 684.343 256.127C680.202 256.127 676.821 257.183 674.201 259.296C671.58 261.409 670.27 264.452 670.27 268.425C670.27 271.129 671.073 273.369 672.679 275.144C674.37 276.835 676.483 278.187 679.018 279.201C681.554 280.216 685.019 281.314 689.415 282.498C695.247 284.104 699.98 285.71 703.614 287.316C707.334 288.922 710.461 291.415 712.997 294.796C715.617 298.092 716.927 302.53 716.927 308.108C716.927 312.588 715.701 316.814 713.25 320.787C710.883 324.759 707.376 327.971 702.727 330.422C698.163 332.789 692.753 333.972 686.499 333.972Z" fill="#21CE99"/>
</svg>
